<?xml version="1.0" encoding="utf-8"?>
<!-- Generator: Adobe Illustrator 22.0.0, SVG Export Plug-In . SVG Version: 6.00 Build 0)  -->
<svg version="1.1" id="图层_1" xmlns="http://www.w3.org/2000/svg" xmlns:xlink="http://www.w3.org/1999/xlink" x="0px" y="0px"
	 viewBox="0 0 220 60" style="enable-background:new 0 0 220 60;" xml:space="preserve">
<style type="text/css">
	.st0{fill:#FFFFFF;}
</style>
<title>qd-logo</title>
<path class="st0" d="M17.6,13.3c30.1-27.8,59,20.7,26,36.9c-0.2,0-0.2,0.2-0.4,0.2c-1.1,0.6-2.3,0.8-3.5,0.8
	c-4.7-0.1-8.4-3.9-8.4-8.5c0-2.5,1.2-4.9,3.1-6.5C54.7,19,31.4,0.9,17.6,13.3z M25.4,4.2c0.3,1.2-0.3,2.4-1.4,3h-0.2l-0.6,0.2
	c-11.1,3.2-18.7,13.4-18.6,25c-0.1,11.6,7.5,21.9,18.6,25.3c-1-0.4-1.9-0.6-2.9-1C5.7,50.9-1.5,34.2,4.3,19.5
	c3.2-7.9,9.7-14,17.8-16.6c0.2,0,0.4-0.2,0.6-0.2C23.9,2.3,25.1,3,25.4,4.2C25.4,4.2,25.4,4.2,25.4,4.2z M46.2,51.8
	c2.9-1.4,4.7-3.4,7.4-5.5c-2.1,3.2-12.8,16-29.3,11.2H24c-1-0.3-1.9-0.8-2.7-1.4c-5.8-4.5-4.1-13.4,1.5-18.5c6.8-6.3,1-6.3-2.7-1.8
	c-0.8,1.2-4.1,3.2-4.6,13.4c-0.9-5,0.5-10.1,3.7-14c0.2-0.6-2.7-8.9,8-9.3c7.8-0.4,7.8,4,14,1.6c-3.9,2.8-11.9,0.6-11.9,0.6
	c1.6,0.8,2.6,2.4,2.7,4.1c0,1.4-0.3,2.9-1,4.2c-1.2,1.9-1.8,4.1-1.9,6.3c-0.1,6,4.8,11,10.8,11c0,0,0.1,0,0.1,0
	C42.2,53.8,44.4,53.1,46.2,51.8z M22.7,31.9c-0.3,0-0.6-0.2-0.8-0.4c0-0.3,0.1-0.6,0.4-0.8c0.3,0,0.6,0.2,0.8,0.4
	C23.1,31.4,22.9,31.7,22.7,31.9"/>
<path class="st0" d="M193.9,29l-0.5-2.5c2.1-0.5,5.1-3.5,8.8-9l2.8,1c-2,2.9-4.3,5.5-6.9,7.9c4.8-0.2,9.4-0.5,13.8-0.9
	c-0.9-1.3-1.8-2.6-2.7-3.8l2.4-1.1c2.4,2.9,4.5,6,6.5,9.3l-2.6,1.3c-0.7-1.2-1.3-2.3-2-3.3C207.6,28.3,201.1,28.7,193.9,29z
	 M198.4,39.8h13.8v-5.7h-13.8V39.8z M214.9,31.6v11.9h-2.7v-1.2h-13.8v1.2h-2.7V31.6L214.9,31.6z M185,22.5l2.4,1.1
	c-0.8,2.2-1.9,4.3-3.2,6.3l-2.4-1.2C183.1,26.7,184.2,24.6,185,22.5z M169.9,22.6c1,1.9,2,4,2.9,6.3l-2.5,1.2
	c-0.8-2.2-1.8-4.3-2.9-6.3L169.9,22.6z M166,18.6h22.8v2.6h-10.2v9.9h11.3v2.6h-11.3v9.7h-2.7v-9.7h-11v-2.6h11v-9.9h-9.9L166,18.6z
	 M146.6,25.1h5.1c0.5-1,0.9-1.9,1.4-2.9h-7.6C145.8,23.1,146.2,24.1,146.6,25.1L146.6,25.1z M152.3,27.5c2,1.4,3.9,2.9,5.6,4.5l-2,2
	c-1.6-1.8-3.5-3.4-5.5-4.9L152.3,27.5z M152.2,37.8v-2.7h-5.8v2.7L152.2,37.8z M143.8,33c-0.5,0.4-1.1,0.7-1.6,1.1l-1.6-2.1v11.3
	H138V25.1h5.8c-0.4-1-0.8-2-1.3-2.9h-5.7v-2.6h11c-0.2-0.6-0.5-1.3-0.8-1.9l2.9-0.5c0.3,0.7,0.5,1.5,0.8,2.3h11v2.5h-5.8
	c-0.4,1.1-0.9,2-1.4,2.9h6v15c0,2.1-0.9,3.2-2.8,3.2H155l-0.7-2.4L157,41c0.7,0,1-0.5,1-1.5V27.4h-17.5v4.4c2.1-1.1,4-2.6,5.6-4.3
	l1.9,1.7c-1.2,1.4-2.5,2.6-3.9,3.7h10.7v7.4h-10.9V33z M127.1,43c-1.5,0-3.2,0-5-0.1c-1.5,0-3-0.2-4.4-0.5c-1.1-0.4-2.2-1.1-2.9-2
	c-0.4-0.5-0.7-0.7-1.1-0.7c-0.6,0-1.6,1.3-3.1,3.8l-2-1.8c1.5-2.3,2.8-3.7,3.9-4.3v-7.9h-3.9v-2.5h6.4v10.6c0.1,0.1,0.3,0.3,0.4,0.4
	c0.6,0.7,1.2,1.2,2,1.7c1.2,0.5,2.4,0.7,3.7,0.7c1.6,0,3.4,0,5.6,0c1.3,0,2.7,0,4.2,0s2.5-0.1,3.2-0.1l-0.6,2.7H127.1z M111.1,17.9
	c1.7,1.3,3.3,2.8,4.8,4.4l-1.9,1.8c-1.4-1.7-3-3.2-4.7-4.5L111.1,17.9z M120.7,28.7h8.6V27h-8.7L120.7,28.7z M120.7,32.4h8.6v-1.6
	h-8.7L120.7,32.4z M129.4,36.2v-1.8h-8.7v1.8L129.4,36.2z M116.6,20.5h4.1c-0.4-0.7-0.8-1.4-1.3-2l2.5-0.9c0.6,0.9,1.2,2,1.7,3h3.1
	c0.7-1,1.2-2,1.7-3l2.6,0.9c-0.4,0.8-0.9,1.5-1.4,2.1h4.2V23H126c-0.2,0.6-0.3,1.1-0.6,1.7h6.4v13.9h-13.7V24.7h4.4
	c0.2-0.6,0.4-1.1,0.5-1.7h-6.6V20.5z M87.1,25.5L89,27c-1.8,2.2-3.9,4.2-6.1,5.8l-1.8-2C83.3,29.3,85.3,27.5,87.1,25.5z M82.4,21.8
	c1.5,0.6,2.9,1.3,4.2,2.2L85.2,26c-1.3-0.9-2.7-1.7-4.1-2.2L82.4,21.8z M83.7,17.7c1.8,0.7,3.4,1.6,5,2.7l-1.3,2
	c-1.5-1.1-3.2-2-5-2.7L83.7,17.7z M89.7,36.4H81v-2.3h11v-1.7h2.6v1.7h11v2.3h-8.4c2.7,1.9,5.8,3.3,9.1,3.9L105,43
	c-4.8-1.7-8.2-3.8-10.2-6.5h-0.1v7h-2.6v-7H92c-1.8,2.6-5.1,4.9-10,6.8l-1.5-2.5C84.8,39.4,87.9,38,89.7,36.4L89.7,36.4z M92.6,24.3
	v1.6h8.6v-1.6L92.6,24.3z M103.6,27.9H92.5v1.6h12.7v2.3H89.9V18.4h15v2.3H92.5v1.6h11.1L103.6,27.9z"/>
</svg>
